<?xml version="1.0" standalone="no"?>
<!DOCTYPE svg PUBLIC "-//W3C//DTD SVG 20010904//EN"
 "http://www.w3.org/TR/2001/REC-SVG-20010904/DTD/svg10.dtd">
<svg version="1.0" xmlns="http://www.w3.org/2000/svg"
 width="731.000000pt" height="672.000000pt" viewBox="0 0 731.000000 672.000000"
 preserveAspectRatio="xMidYMid meet">

<g transform="translate(0.000000,672.000000) scale(0.100000,-0.100000)"
fill="#000000" stroke="none">
<path d="M0 3360 l0 -3360 3655 0 3655 0 0 3360 0 3360 -3655 0 -3655 0 0
-3360z m6200 2450 l0 -570 -45 0 -45 0 0 520 0 520 -2835 0 -2835 0 0 -2825 0
-2825 2835 0 2835 0 0 520 0 520 45 0 45 0 0 -570 0 -570 -2925 0 -2925 0 0
2925 0 2925 2925 0 2925 0 0 -570z m-3541 -172 c27 -146 24 -405 -5 -580 l-7
-38 126 0 c111 0 126 -2 131 -17 29 -96 35 -442 11 -578 -8 -44 -15 -81 -15
-82 0 -2 29 -3 64 -3 74 0 68 9 86 -130 18 -139 10 -393 -16 -512 l-6 -28 127
0 127 0 -6 28 c-34 157 -34 453 0 615 5 26 8 27 70 27 35 0 64 1 64 3 0 1 -7
38 -15 82 -24 136 -18 482 11 578 5 15 20 17 131 17 l126 0 -7 38 c-29 175
-32 434 -5 580 l11 62 427 -2 426 -3 13 -70 c17 -97 16 -430 -1 -525 -12 -65
-12 -86 0 -155 19 -107 19 -413 0 -520 -12 -69 -12 -91 0 -155 18 -100 18
-430 0 -530 -12 -64 -12 -86 0 -155 20 -108 19 -413 0 -522 -10 -56 -12 -94
-6 -120 29 -127 29 -465 -1 -597 -6 -26 -5 -57 1 -86 29 -127 29 -463 0 -589
-5 -23 -3 -64 6 -111 17 -96 18 -428 1 -530 l-13 -75 -342 -3 -341 -2 -13 72
c-18 97 -18 439 0 536 11 60 11 84 0 145 -9 44 -14 148 -14 267 0 119 5 223
14 267 11 61 11 85 0 145 -18 99 -18 441 0 531 11 57 11 80 0 150 -18 107 -18
416 0 527 10 68 11 97 1 145 -26 136 -23 425 6 573 l7 32 -128 0 c-127 0 -127
0 -121 -22 29 -110 33 -491 6 -598 -9 -35 -8 -60 2 -110 18 -91 16 -506 -3
-575 l-14 -50 -83 -3 c-68 -2 -83 -6 -78 -17 28 -75 33 -499 6 -605 -9 -35 -8
-60 2 -110 18 -89 18 -484 0 -562 l-13 -58 -254 0 -254 0 -13 58 c-18 78 -18
473 0 562 10 50 11 75 2 110 -27 106 -22 530 6 605 5 13 -8 15 -75 15 -97 0
-94 -3 -111 133 -14 111 -8 435 9 504 8 31 7 66 -4 140 -19 126 -19 392 0 498
8 44 15 81 15 83 0 1 -57 2 -126 2 l-126 0 6 -32 c29 -145 32 -436 5 -573 -9
-47 -8 -78 2 -145 18 -111 18 -420 0 -527 -11 -70 -11 -93 0 -150 18 -89 19
-433 1 -526 -11 -59 -10 -88 4 -200 18 -144 15 -379 -6 -492 -9 -46 -9 -77 2
-140 17 -106 17 -415 -1 -523 l-13 -82 -342 2 -341 3 -13 75 c-17 102 -16 435
1 530 9 46 11 88 6 110 -4 19 -13 93 -19 164 -10 132 0 368 20 436 6 20 6 49
0 74 -21 94 -31 305 -20 434 6 70 14 144 19 165 6 26 4 64 -6 120 -20 109 -20
413 0 522 13 70 12 90 0 160 -20 107 -20 413 0 520 13 70 12 90 0 160 -20 107
-20 413 0 520 12 70 12 90 0 160 -25 138 -16 539 14 588 2 4 195 7 428 7 l423
0 11 -62z m3198 -925 c4 -16 8 -80 7 -143 -1 -132 -1 -213 -1 -375 0 -63 0
-146 0 -185 0 -38 0 -119 0 -180 0 -60 0 -141 0 -180 0 -38 0 -122 0 -185 0
-63 0 -146 0 -185 0 -38 0 -119 0 -180 0 -60 0 -144 0 -185 0 -41 1 -123 1
-182 1 -60 -1 -126 -4 -148 l-5 -40 456 -3 457 -2 6 -31 c8 -41 8 -223 0 -283
l-7 -46 -639 0 c-599 0 -639 1 -646 17 -4 10 -7 77 -6 148 1 262 1 258 1 560
0 36 0 119 0 185 0 66 0 149 0 185 0 36 0 116 0 178 0 61 0 141 0 177 0 192 0
650 -1 750 -1 256 0 308 7 333 l7 27 180 0 180 0 7 -27z"/>
</g>
</svg>
