<svg id="svg" xmlns="http://www.w3.org/2000/svg" xmlns:xlink="http://www.w3.org/1999/xlink" width="400" height="367.8082191780822" viewBox="0, 0, 400,367.8082191780822" version="1.1"><g id="svgg"><path id="path0" d="M19.319 18.311 C 19.075 18.492,18.982 72.352,19.044 178.933 L 19.137 339.282 179.004 339.282 C 266.931 339.282,338.958 339.142,339.064 338.970 C 339.315 338.564,339.421 276.879,339.172 276.475 C 339.068 276.307,337.932 276.253,336.649 276.355 L 334.315 276.541 334.220 305.157 L 334.126 333.773 228.977 333.681 C 171.144 333.630,101.431 333.540,74.057 333.481 L 24.287 333.374 24.287 178.647 L 24.287 23.919 179.209 23.919 L 334.131 23.919 334.131 52.438 L 334.131 80.957 336.707 80.957 L 339.282 80.957 339.282 54.713 C 339.282 37.537,339.419 27.729,339.679 26.326 C 339.938 24.925,339.949 24.104,339.713 23.957 C 339.339 23.727,339.367 20.696,339.757 19.227 L 339.976 18.399 180.322 18.399 C 92.512 18.399,20.447 18.318,20.177 18.219 C 19.908 18.120,19.522 18.161,19.319 18.311 M98.311 56.135 C 98.076 56.651,97.884 57.552,97.884 58.137 C 97.884 58.723,97.718 59.305,97.516 59.430 C 97.314 59.555,97.148 60.525,97.148 61.586 C 97.148 62.646,96.977 63.685,96.769 63.894 C 96.275 64.387,96.539 83.610,97.080 86.661 C 97.532 89.206,98.096 92.014,98.262 92.548 C 98.411 93.029,97.922 95.655,97.507 96.596 C 96.338 99.254,96.339 123.756,97.509 126.403 C 98.465 128.566,98.464 131.570,97.508 133.763 C 96.658 135.710,95.999 158.335,96.769 159.105 C 96.977 159.314,97.148 160.329,97.148 161.362 C 97.148 162.394,97.335 163.426,97.564 163.655 C 98.120 164.210,98.133 169.604,97.581 170.629 C 97.343 171.071,97.148 172.156,97.148 173.039 C 97.148 173.923,96.977 174.816,96.769 175.025 C 95.995 175.799,96.658 198.798,97.510 200.736 C 97.817 201.432,98.264 203.618,98.264 204.416 C 98.264 205.214,97.817 207.399,97.510 208.096 C 96.329 210.782,96.327 235.228,97.509 237.902 C 98.411 239.944,98.412 243.213,97.510 245.262 C 96.329 247.949,96.327 272.395,97.509 275.069 C 97.826 275.787,98.276 278.014,98.252 278.749 C 98.209 280.102,97.752 282.283,97.477 282.453 C 97.296 282.565,97.148 283.524,97.148 284.585 C 97.148 285.645,96.977 286.684,96.769 286.893 C 96.275 287.386,96.539 306.609,97.080 309.660 C 97.851 314.002,98.115 315.213,98.388 315.653 C 98.794 316.311,134.802 316.298,135.327 315.639 C 135.997 314.799,136.818 309.143,137.188 302.817 C 137.626 295.338,137.068 286.063,135.839 280.405 C 135.605 279.329,135.605 278.169,135.838 277.093 C 137.646 268.736,137.845 248.512,136.158 244.526 C 135.584 243.172,135.476 241.596,135.841 239.926 C 137.732 231.269,137.790 214.024,135.952 206.849 C 135.528 205.193,135.499 204.359,135.815 202.925 C 137.893 193.500,137.911 178.623,135.856 169.024 C 135.663 168.122,135.663 166.753,135.855 165.712 C 137.679 155.858,137.845 138.137,136.161 133.211 C 135.988 132.705,135.747 131.835,135.625 131.279 L 135.405 130.267 142.446 130.267 L 149.488 130.267 149.248 131.095 C 147.565 136.907,147.113 155.438,148.463 163.239 C 149.161 167.273,149.161 167.370,148.458 170.967 C 147.415 176.301,147.419 195.325,148.464 200.644 L 149.169 204.232 153.425 204.237 C 158.715 204.244,158.773 204.276,158.251 206.846 C 157.216 211.937,156.947 215.265,156.946 222.999 C 156.946 227.661,157.139 232.485,157.387 234.039 C 157.630 235.557,158.010 237.882,158.232 239.207 C 158.520 240.923,158.524 242.244,158.245 243.806 C 157.143 249.998,156.947 252.470,156.950 260.166 C 156.952 267.969,157.152 270.469,158.253 276.449 L 158.710 278.933 172.600 278.933 L 186.489 278.933 186.685 278.105 C 186.792 277.649,187.071 275.952,187.304 274.333 C 187.537 272.714,187.881 270.492,188.068 269.396 C 188.531 266.684,188.499 253.648,188.023 250.640 C 187.810 249.302,187.380 246.727,187.067 244.919 C 186.553 241.955,186.553 241.304,187.065 238.295 C 187.377 236.460,187.807 233.863,188.020 232.524 C 188.526 229.356,188.521 216.414,188.013 212.978 C 187.796 211.507,187.415 209.103,187.166 207.637 C 186.585 204.212,186.558 204.232,191.752 204.232 L 196.053 204.232 196.294 203.036 C 198.116 193.998,198.373 178.348,196.815 171.297 C 196.252 168.748,196.314 165.682,197.017 161.362 C 197.742 156.910,197.985 147.982,197.558 141.544 C 197.282 137.392,197.051 135.588,196.242 131.279 L 196.053 130.267 202.902 130.267 C 206.669 130.267,209.752 130.402,209.752 130.568 C 209.752 130.734,209.517 131.686,209.230 132.684 C 207.336 139.270,207.386 156.817,209.325 165.593 C 209.567 166.687,209.567 167.812,209.327 168.905 C 207.377 177.778,207.338 193.981,209.247 202.050 C 209.765 204.241,209.765 204.690,209.241 206.834 C 207.459 214.135,207.464 231.609,209.251 239.216 C 209.765 241.403,209.764 241.861,209.241 244.000 C 207.452 251.330,207.455 268.534,209.248 276.102 C 209.793 278.404,209.793 278.805,209.249 281.069 C 207.340 289.012,207.703 311.480,209.805 315.455 C 210.240 316.279,246.277 316.471,246.783 315.653 C 247.053 315.216,247.290 314.134,248.096 309.660 C 248.610 306.802,248.615 287.528,248.101 284.637 C 247.886 283.422,247.530 281.593,247.311 280.572 C 247.024 279.238,247.025 278.203,247.312 276.892 C 248.335 272.235,248.493 269.978,248.487 260.166 C 248.481 249.892,248.307 246.741,247.663 245.262 C 247.101 243.969,246.962 241.637,247.335 239.742 C 247.535 238.730,247.877 236.909,248.096 235.695 C 248.614 232.817,248.616 213.194,248.098 210.304 C 247.880 209.089,247.544 207.268,247.351 206.256 C 247.128 205.092,247.128 203.740,247.349 202.576 C 247.541 201.564,247.877 199.742,248.096 198.528 C 248.624 195.597,248.625 175.598,248.097 172.953 C 247.148 168.198,247.019 167.193,247.176 165.788 C 247.268 164.972,247.487 163.974,247.663 163.569 C 248.851 160.842,248.851 136.493,247.663 133.763 C 247.101 132.469,246.962 130.137,247.335 128.243 C 247.535 127.231,247.877 125.409,248.096 124.195 C 248.640 121.173,248.652 101.629,248.111 98.804 C 247.879 97.590,247.528 95.768,247.331 94.756 C 246.962 92.859,247.102 90.526,247.663 89.236 C 248.556 87.185,248.897 65.851,248.101 61.822 C 247.882 60.708,247.587 58.970,247.446 57.958 C 247.030 54.968,249.019 55.198,223.545 55.198 C 202.074 55.198,200.613 55.238,200.350 55.842 C 198.769 59.467,198.314 79.949,199.629 88.316 C 199.932 90.239,200.180 92.098,200.181 92.448 C 200.184 93.025,199.539 93.093,193.284 93.184 L 186.385 93.284 186.108 94.940 C 185.124 100.833,184.941 103.360,184.932 111.132 C 184.926 116.254,185.114 121.129,185.394 123.091 C 185.653 124.913,185.958 127.231,186.071 128.243 L 186.277 130.083 182.963 129.956 C 179.134 129.808,179.567 129.340,178.591 134.683 C 177.687 139.631,177.691 158.471,178.597 162.833 C 179.612 167.718,180.256 167.259,172.493 167.187 L 165.777 167.125 165.887 166.267 C 165.947 165.795,166.141 164.995,166.318 164.489 C 168.161 159.216,168.021 141.144,166.063 131.555 L 165.762 130.083 162.315 130.218 L 158.868 130.354 159.082 128.562 C 160.860 113.713,160.904 105.592,159.260 95.584 L 158.852 93.100 151.919 93.100 C 148.106 93.100,144.986 92.976,144.987 92.824 C 144.987 92.672,145.241 91.141,145.551 89.420 C 146.917 81.845,146.477 59.229,144.901 56.026 L 144.494 55.198 121.616 55.198 L 98.738 55.198 98.311 56.135 M300.095 109.568 C 299.977 110.327,299.702 111.880,299.485 113.020 C 299.044 115.335,299.245 122.132,299.867 125.943 C 300.160 127.734,300.162 129.120,299.876 130.911 C 299.140 135.518,299.083 139.517,299.690 144.139 C 300.186 147.923,300.206 149.050,299.817 151.315 C 299.246 154.645,299.270 162.359,299.862 165.707 C 300.214 167.697,300.207 168.834,299.831 171.227 C 299.232 175.031,299.232 182.231,299.831 185.836 C 300.216 188.151,300.201 189.106,299.738 191.724 C 299.031 195.721,299.026 200.322,299.724 204.964 C 300.182 208.019,300.198 209.086,299.818 211.310 C 299.244 214.672,299.250 221.924,299.830 225.681 C 300.195 228.043,300.176 229.191,299.722 232.210 C 298.961 237.276,299.420 247.656,300.450 248.686 C 300.743 248.980,369.709 249.060,370.169 248.767 C 371.655 247.820,371.530 229.841,370.031 228.800 C 369.816 228.652,358.571 228.528,345.041 228.524 L 320.441 228.519 320.658 226.771 C 321.259 221.917,321.315 214.634,320.776 211.529 C 320.283 208.696,320.282 207.997,320.770 205.274 C 321.366 201.943,321.246 192.179,320.582 190.028 C 320.342 189.251,320.389 187.847,320.728 185.613 C 321.381 181.309,321.382 174.437,320.730 171.028 C 320.282 168.686,320.281 167.891,320.722 165.384 C 321.399 161.542,321.388 154.966,320.699 151.366 C 320.201 148.772,320.205 148.135,320.734 145.025 C 321.360 141.346,321.284 134.052,320.582 130.451 C 320.324 129.124,320.367 127.645,320.737 125.147 C 321.546 119.698,321.395 113.953,320.314 109.016 L 320.133 108.188 310.221 108.188 L 300.309 108.188 300.095 109.568 " stroke="none" fill="#fbfbfb" fill-rule="evenodd"></path><path id="path1" d="M18.352 18.272 C 17.926 18.785,17.832 43.967,17.747 179.218 L 17.647 339.555 18.483 340.084 C 19.867 340.958,339.109 341.025,340.075 340.151 C 340.968 339.343,341.130 277.067,340.243 275.898 C 339.562 275.001,334.065 274.792,333.226 275.632 C 332.731 276.127,332.660 279.578,332.635 304.164 L 332.607 332.134 202.274 332.209 C 130.591 332.251,61.592 332.392,48.942 332.524 L 25.943 332.763 26.061 179.174 C 26.126 94.700,26.226 25.537,26.284 25.479 C 26.527 25.236,272.214 25.045,301.104 25.265 L 332.659 25.505 332.659 53.533 L 332.659 81.560 333.581 82.362 C 334.957 83.558,338.817 83.523,339.962 82.305 L 340.770 81.445 340.744 50.640 C 340.719 21.274,340.664 18.767,340.040 18.767 C 339.499 18.767,339.192 23.636,339.713 23.957 C 339.949 24.104,339.938 24.925,339.679 26.326 C 339.419 27.729,339.282 37.537,339.282 54.713 L 339.282 80.957 336.707 80.957 L 334.131 80.957 334.131 52.438 L 334.131 23.919 179.209 23.919 L 24.287 23.919 24.287 178.647 L 24.287 333.374 74.057 333.481 C 101.431 333.540,171.144 333.630,228.977 333.681 L 334.126 333.773 334.220 305.157 L 334.315 276.541 336.649 276.355 C 337.932 276.253,339.068 276.307,339.172 276.475 C 339.421 276.879,339.315 338.564,339.064 338.970 C 338.958 339.142,266.931 339.282,179.004 339.282 L 19.137 339.282 19.044 178.933 C 18.993 90.741,18.966 18.541,18.984 18.489 C 19.003 18.437,91.243 18.396,179.518 18.398 C 286.635 18.401,340.018 18.279,340.018 18.033 C 340.018 17.306,18.956 17.545,18.352 18.272 M97.696 55.337 C 96.899 56.553,96.412 58.410,96.412 60.233 C 96.412 61.083,96.272 61.865,96.101 61.970 C 95.702 62.217,95.151 69.972,95.144 75.437 C 95.139 79.468,95.606 84.947,96.399 90.156 C 96.774 92.619,96.520 98.620,96.042 98.620 C 94.896 98.620,95.011 123.248,96.163 124.689 C 96.773 125.450,96.665 135.959,96.040 136.712 C 95.327 137.571,95.342 159.500,96.056 160.825 C 96.742 162.096,96.753 171.874,96.070 173.856 C 95.368 175.897,95.367 196.977,96.070 197.823 C 96.693 198.573,96.794 209.758,96.185 210.523 C 95.846 210.948,95.159 219.844,95.192 223.367 C 95.224 226.758,95.837 235.143,96.054 235.143 C 96.530 235.143,96.787 242.986,96.391 245.446 C 95.007 254.053,94.852 270.962,96.143 272.591 C 96.649 273.230,96.670 283.876,96.166 284.512 C 94.986 286.001,94.879 308.426,96.044 310.028 C 96.192 310.230,96.406 311.555,96.520 312.971 C 96.918 317.924,95.323 317.571,117.340 317.571 L 135.658 317.571 136.404 316.743 C 139.130 313.715,140.021 285.544,137.550 280.513 C 137.262 279.927,137.266 279.106,137.563 277.569 C 138.679 271.794,138.783 269.954,138.625 258.878 C 138.536 252.603,138.287 246.642,138.072 245.630 C 137.267 241.836,137.158 240.617,137.554 239.814 C 139.221 236.435,139.222 209.220,137.556 205.822 C 137.339 205.382,137.278 204.554,137.420 203.982 C 138.300 200.427,138.505 197.122,138.519 186.201 C 138.531 177.508,138.399 173.588,138.037 171.849 C 137.303 168.328,137.582 162.002,138.540 160.453 C 138.946 159.794,138.828 137.522,138.409 135.910 C 138.207 135.134,137.990 133.836,137.927 133.027 L 137.812 131.555 142.043 131.462 C 147.542 131.342,147.280 131.090,146.770 135.991 C 146.233 141.155,146.273 155.906,146.837 160.442 C 147.387 164.872,147.415 169.284,146.919 173.505 C 146.378 178.107,146.566 199.087,147.170 201.472 C 148.290 205.901,148.444 206.016,153.450 206.163 C 155.881 206.235,156.554 206.369,156.470 206.763 C 154.963 213.858,155.150 232.695,156.798 239.794 C 157.142 241.274,157.139 242.074,156.782 243.474 C 154.302 253.216,155.271 278.181,158.189 279.744 C 159.474 280.432,186.561 280.437,187.391 279.750 C 189.570 277.942,190.733 256.491,189.193 246.507 C 188.448 241.681,188.444 241.415,189.049 238.057 C 189.824 233.756,189.978 214.070,189.261 211.040 C 189.021 210.028,188.729 208.496,188.612 207.636 L 188.400 206.072 192.176 206.066 C 196.241 206.060,196.466 205.993,197.124 204.600 C 198.876 200.888,199.623 181.655,198.345 173.137 C 197.680 168.706,197.499 164.832,197.919 163.989 C 199.334 161.148,199.385 139.637,197.991 133.399 C 197.555 131.446,197.705 131.383,202.830 131.376 C 207.967 131.370,207.613 130.945,206.974 136.355 C 206.260 142.407,206.304 155.804,207.054 160.810 C 207.745 165.421,207.788 168.495,207.213 172.217 C 206.410 177.416,206.294 192.409,207.015 197.792 C 207.815 203.765,207.816 205.561,207.021 210.856 C 206.288 215.739,206.399 232.884,207.194 237.534 C 207.770 240.906,207.758 242.792,207.136 246.366 C 206.449 250.315,206.439 270.140,207.122 274.333 C 207.773 278.326,207.767 279.196,207.059 284.085 C 205.400 295.536,206.608 315.255,209.074 316.982 C 210.512 317.989,246.466 317.864,247.556 316.848 C 249.275 315.246,251.240 292.947,249.907 290.163 C 248.948 288.159,248.709 277.462,249.464 270.285 C 250.312 262.210,250.013 250.776,248.777 244.090 C 248.525 242.727,248.527 241.201,248.785 239.351 C 250.345 228.135,250.328 216.685,248.738 207.099 C 248.435 205.270,248.438 203.935,248.750 201.947 C 250.267 192.281,250.259 178.113,248.731 169.847 C 248.463 168.399,248.473 166.957,248.765 164.947 C 250.301 154.360,250.305 142.296,248.774 132.751 C 248.487 130.961,248.489 129.573,248.779 127.783 C 250.269 118.605,250.276 104.753,248.797 95.702 C 248.499 93.882,248.535 92.446,248.952 89.475 C 249.250 87.350,249.494 84.681,249.494 83.542 C 249.494 82.404,249.667 81.299,249.879 81.087 C 251.229 79.737,249.223 57.051,247.601 55.326 L 246.790 54.462 223.872 54.462 C 196.749 54.462,199.026 54.052,198.314 59.062 C 196.421 72.374,196.408 77.236,198.228 90.248 L 198.421 91.628 192.478 91.628 C 185.669 91.628,184.729 92.003,184.729 94.718 C 184.729 95.423,184.588 96.088,184.416 96.194 C 183.156 96.973,183.149 126.390,184.410 127.169 C 185.737 127.990,184.644 128.795,182.202 128.795 C 177.991 128.795,177.558 129.508,176.613 137.994 C 175.889 144.496,176.463 160.551,177.591 165.357 L 177.838 166.409 173.096 166.146 C 167.398 165.830,167.757 166.119,168.283 162.282 C 168.857 158.097,168.853 139.066,168.278 135.191 C 167.450 129.619,166.875 128.826,163.385 128.457 C 161.402 128.247,161.363 128.221,161.455 127.139 C 161.507 126.532,161.744 124.048,161.983 121.619 C 162.759 113.716,161.974 96.783,160.772 95.511 C 160.590 95.318,160.442 94.634,160.442 93.989 C 160.442 91.915,159.499 91.628,152.688 91.628 L 146.749 91.628 146.958 90.248 C 147.073 89.489,147.377 87.461,147.633 85.741 C 148.475 80.075,148.105 61.465,147.139 60.867 C 146.967 60.761,146.826 59.854,146.826 58.851 C 146.826 57.007,146.361 55.772,145.354 54.941 C 144.929 54.590,139.474 54.483,121.536 54.474 L 98.269 54.462 97.696 55.337 M144.901 56.026 C 146.477 59.229,146.917 81.845,145.551 89.420 C 145.241 91.141,144.987 92.672,144.987 92.824 C 144.986 92.976,148.106 93.100,151.919 93.100 L 158.852 93.100 159.260 95.584 C 160.904 105.592,160.860 113.713,159.082 128.562 L 158.868 130.354 162.315 130.218 L 165.762 130.083 166.063 131.555 C 168.021 141.144,168.161 159.216,166.318 164.489 C 166.141 164.995,165.947 165.795,165.887 166.267 L 165.777 167.125 172.493 167.187 C 180.256 167.259,179.612 167.718,178.597 162.833 C 177.691 158.471,177.687 139.631,178.591 134.683 C 179.567 129.340,179.134 129.808,182.963 129.956 L 186.277 130.083 186.071 128.243 C 185.958 127.231,185.653 124.913,185.394 123.091 C 185.114 121.129,184.926 116.254,184.932 111.132 C 184.941 103.360,185.124 100.833,186.108 94.940 L 186.385 93.284 193.284 93.184 C 199.539 93.093,200.184 93.025,200.181 92.448 C 200.180 92.098,199.932 90.239,199.629 88.316 C 198.314 79.949,198.769 59.467,200.350 55.842 C 200.613 55.238,202.074 55.198,223.545 55.198 C 249.019 55.198,247.030 54.968,247.446 57.958 C 247.587 58.970,247.882 60.708,248.101 61.822 C 248.897 65.851,248.556 87.185,247.663 89.236 C 247.102 90.526,246.962 92.859,247.331 94.756 C 247.528 95.768,247.879 97.590,248.111 98.804 C 248.652 101.629,248.640 121.173,248.096 124.195 C 247.877 125.409,247.535 127.231,247.335 128.243 C 246.962 130.137,247.101 132.469,247.663 133.763 C 248.851 136.493,248.851 160.842,247.663 163.569 C 247.487 163.974,247.268 164.972,247.176 165.788 C 247.019 167.193,247.148 168.198,248.097 172.953 C 248.625 175.598,248.624 195.597,248.096 198.528 C 247.877 199.742,247.541 201.564,247.349 202.576 C 247.128 203.740,247.128 205.092,247.351 206.256 C 247.544 207.268,247.880 209.089,248.098 210.304 C 248.616 213.194,248.614 232.817,248.096 235.695 C 247.877 236.909,247.535 238.730,247.335 239.742 C 246.962 241.637,247.101 243.969,247.663 245.262 C 248.307 246.741,248.481 249.892,248.487 260.166 C 248.493 269.978,248.335 272.235,247.312 276.892 C 247.025 278.203,247.024 279.238,247.311 280.572 C 247.530 281.593,247.886 283.422,248.101 284.637 C 248.615 287.528,248.610 306.802,248.096 309.660 C 247.290 314.134,247.053 315.216,246.783 315.653 C 246.277 316.471,210.240 316.279,209.805 315.455 C 207.703 311.480,207.340 289.012,209.249 281.069 C 209.793 278.805,209.793 278.404,209.248 276.102 C 207.455 268.534,207.452 251.330,209.241 244.000 C 209.764 241.861,209.765 241.403,209.251 239.216 C 207.464 231.609,207.459 214.135,209.241 206.834 C 209.765 204.690,209.765 204.241,209.247 202.050 C 207.338 193.981,207.377 177.778,209.327 168.905 C 209.567 167.812,209.567 166.687,209.325 165.593 C 207.386 156.817,207.336 139.270,209.230 132.684 C 209.517 131.686,209.752 130.734,209.752 130.568 C 209.752 130.402,206.669 130.267,202.902 130.267 L 196.053 130.267 196.242 131.279 C 197.051 135.588,197.282 137.392,197.558 141.544 C 197.985 147.982,197.742 156.910,197.017 161.362 C 196.314 165.682,196.252 168.748,196.815 171.297 C 198.373 178.348,198.116 193.998,196.294 203.036 L 196.053 204.232 191.752 204.232 C 186.558 204.232,186.585 204.212,187.166 207.637 C 187.415 209.103,187.796 211.507,188.013 212.978 C 188.521 216.414,188.526 229.356,188.020 232.524 C 187.807 233.863,187.377 236.460,187.065 238.295 C 186.553 241.304,186.553 241.955,187.067 244.919 C 187.380 246.727,187.810 249.302,188.023 250.640 C 188.499 253.648,188.531 266.684,188.068 269.396 C 187.881 270.492,187.537 272.714,187.304 274.333 C 187.071 275.952,186.792 277.649,186.685 278.105 L 186.489 278.933 172.600 278.933 L 158.710 278.933 158.253 276.449 C 157.152 270.469,156.952 267.969,156.950 260.166 C 156.947 252.470,157.143 249.998,158.245 243.806 C 158.524 242.244,158.520 240.923,158.232 239.207 C 158.010 237.882,157.630 235.557,157.387 234.039 C 157.139 232.485,156.946 227.661,156.946 222.999 C 156.947 215.265,157.216 211.937,158.251 206.846 C 158.773 204.276,158.715 204.244,153.425 204.237 L 149.169 204.232 148.464 200.644 C 147.419 195.325,147.415 176.301,148.458 170.967 C 149.161 167.370,149.161 167.273,148.463 163.239 C 147.113 155.438,147.565 136.907,149.248 131.095 L 149.488 130.267 142.446 130.267 L 135.405 130.267 135.625 131.279 C 135.747 131.835,135.988 132.705,136.161 133.211 C 137.845 138.137,137.679 155.858,135.855 165.712 C 135.663 166.753,135.663 168.122,135.856 169.024 C 137.911 178.623,137.893 193.500,135.815 202.925 C 135.499 204.359,135.528 205.193,135.952 206.849 C 137.790 214.024,137.732 231.269,135.841 239.926 C 135.476 241.596,135.584 243.172,136.158 244.526 C 137.845 248.512,137.646 268.736,135.838 277.093 C 135.605 278.169,135.605 279.329,135.839 280.405 C 137.068 286.063,137.626 295.338,137.188 302.817 C 136.818 309.143,135.997 314.799,135.327 315.639 C 134.802 316.298,98.794 316.311,98.388 315.653 C 98.115 315.213,97.851 314.002,97.080 309.660 C 96.539 306.609,96.275 287.386,96.769 286.893 C 96.977 286.684,97.148 285.645,97.148 284.585 C 97.148 283.524,97.296 282.565,97.477 282.453 C 97.752 282.283,98.209 280.102,98.252 278.749 C 98.276 278.014,97.826 275.787,97.509 275.069 C 96.327 272.395,96.329 247.949,97.510 245.262 C 98.412 243.213,98.411 239.944,97.509 237.902 C 96.327 235.228,96.329 210.782,97.510 208.096 C 97.817 207.399,98.264 205.214,98.264 204.416 C 98.264 203.618,97.817 201.432,97.510 200.736 C 96.658 198.798,95.995 175.799,96.769 175.025 C 96.977 174.816,97.148 173.923,97.148 173.039 C 97.148 172.156,97.343 171.071,97.581 170.629 C 98.133 169.604,98.120 164.210,97.564 163.655 C 97.335 163.426,97.148 162.394,97.148 161.362 C 97.148 160.329,96.977 159.314,96.769 159.105 C 95.999 158.335,96.658 135.710,97.508 133.763 C 98.464 131.570,98.465 128.566,97.509 126.403 C 96.339 123.756,96.338 99.254,97.507 96.596 C 97.922 95.655,98.411 93.029,98.262 92.548 C 98.096 92.014,97.532 89.206,97.080 86.661 C 96.539 83.610,96.275 64.387,96.769 63.894 C 96.977 63.685,97.148 62.646,97.148 61.586 C 97.148 60.525,97.314 59.555,97.516 59.430 C 97.718 59.305,97.884 58.723,97.884 58.137 C 97.884 57.552,98.076 56.651,98.311 56.135 L 98.738 55.198 121.616 55.198 L 144.494 55.198 144.901 56.026 M300.101 107.345 C 299.064 107.620,298.461 108.557,298.448 109.914 C 298.441 110.560,298.270 111.190,298.068 111.316 C 297.539 111.642,297.589 125.212,298.126 127.004 C 298.453 128.094,298.449 128.774,298.109 129.908 C 297.815 130.889,297.691 133.809,297.743 138.556 C 297.786 142.497,297.817 146.757,297.812 148.022 C 297.807 149.287,297.786 153.965,297.764 158.418 C 297.743 162.870,297.794 171.398,297.878 177.369 C 297.963 183.339,298.016 188.804,297.996 189.512 C 297.927 192.022,297.930 205.918,298.000 207.912 C 298.039 209.025,297.978 213.389,297.864 217.611 C 297.744 222.055,297.808 225.991,298.015 226.962 C 298.254 228.081,298.246 228.955,297.993 229.591 C 297.160 231.679,297.488 246.248,298.410 248.153 L 299.238 249.862 335.038 249.862 C 363.239 249.862,370.917 249.764,371.204 249.402 C 372.508 247.758,373.077 234.997,372.042 230.611 C 371.204 227.061,370.917 226.948,363.017 227.067 C 359.374 227.122,348.656 227.140,339.200 227.107 L 322.006 227.047 322.262 225.851 C 322.403 225.193,322.506 222.088,322.492 218.951 C 322.456 211.222,322.442 205.279,322.443 198.804 C 322.444 195.819,322.440 191.389,322.435 188.960 C 322.430 186.532,322.430 182.061,322.435 179.025 C 322.440 175.989,322.441 171.518,322.436 169.089 C 322.431 166.661,322.435 161.983,322.445 158.694 C 322.465 151.779,322.467 148.039,322.459 138.362 C 322.456 134.517,322.458 130.005,322.464 128.335 C 322.539 107.386,322.579 107.738,320.094 107.361 C 318.455 107.112,301.031 107.098,300.101 107.345 M320.314 109.016 C 321.395 113.953,321.546 119.698,320.737 125.147 C 320.367 127.645,320.324 129.124,320.582 130.451 C 321.284 134.052,321.360 141.346,320.734 145.025 C 320.205 148.135,320.201 148.772,320.699 151.366 C 321.388 154.966,321.399 161.542,320.722 165.384 C 320.281 167.891,320.282 168.686,320.730 171.028 C 321.382 174.437,321.381 181.309,320.728 185.613 C 320.389 187.847,320.342 189.251,320.582 190.028 C 321.246 192.179,321.366 201.943,320.770 205.274 C 320.282 207.997,320.283 208.696,320.776 211.529 C 321.315 214.634,321.259 221.917,320.658 226.771 L 320.441 228.519 345.041 228.524 C 358.571 228.528,369.816 228.652,370.031 228.800 C 371.530 229.841,371.655 247.820,370.169 248.767 C 369.709 249.060,300.743 248.980,300.450 248.686 C 299.420 247.656,298.961 237.276,299.722 232.210 C 300.176 229.191,300.195 228.043,299.830 225.681 C 299.250 221.924,299.244 214.672,299.818 211.310 C 300.198 209.086,300.182 208.019,299.724 204.964 C 299.026 200.322,299.031 195.721,299.738 191.724 C 300.201 189.106,300.216 188.151,299.831 185.836 C 299.232 182.231,299.232 175.031,299.831 171.227 C 300.207 168.834,300.214 167.697,299.862 165.707 C 299.270 162.359,299.246 154.645,299.817 151.315 C 300.206 149.050,300.186 147.923,299.690 144.139 C 299.083 139.517,299.140 135.518,299.876 130.911 C 300.162 129.120,300.160 127.734,299.867 125.943 C 299.245 122.132,299.044 115.335,299.485 113.020 C 299.702 111.880,299.977 110.327,300.095 109.568 L 300.309 108.188 310.221 108.188 L 320.133 108.188 320.314 109.016 " stroke="none" fill="#4b4b4b" fill-rule="evenodd"></path></g></svg>